<svg viewBox="0 0 540 104" fill="none" xmlns="http://www.w3.org/2000/svg">
<path d="M0.919983 34.85V101.24H20.17V19.36C20.17 19.36 0.919983 18.84 0.919983 34.85Z" fill="#F05300"/>
<path d="M59.23 0.950012V5.42001C59.23 13.12 52.99 19.7 45.29 19.7H20.18C20.18 19.7 0.929993 19.95 0.929993 35.95V22.71C0.929993 10.69 10.67 0.950012 22.69 0.950012H59.23Z" fill="#FE7D08"/>
<path d="M59.23 49.42V53.89C59.23 61.59 52.99 68.17 45.29 68.17H20.18C20.18 68.17 0.929993 68.42 0.929993 84.42V71.18C0.929993 59.16 10.67 49.42 22.69 49.42H59.23Z" fill="#FE7D08"/>
<path d="M90.47 32.6H72.48V101.24H90.47V32.6Z" fill="#F05300"/>
<path d="M81.41 0.950012C78.43 0.950012 75.85 2.06999 73.67 4.29999C71.48 6.52999 70.39 9.13999 70.39 12.11C70.39 15.08 71.48 17.67 73.67 19.85C75.85 22.04 78.43 23.13 81.41 23.13C84.39 23.13 87.1 22.04 89.29 19.85C91.47 17.67 92.57 15.09 92.57 12.11C92.57 9.12999 91.48 6.52999 89.29 4.29999C87.1 2.06999 84.48 0.950012 81.41 0.950012Z" fill="#FE7D08"/>
<path d="M145.71 30.64C136.22 30.64 129.3 33.9 124.93 40.4V32.59H106.94V101.23H124.93V64.67C124.93 58.91 126.33 54.58 129.11 51.7C131.9 48.82 135.62 47.38 140.27 47.38C144.45 47.38 147.8 48.61 150.31 51.08C152.82 53.54 154.08 57.1 154.08 61.75V101.24H172.07V59.52C172.07 50.5 169.58 43.43 164.61 38.32C159.63 33.21 153.33 30.65 145.71 30.65" fill="#F05300"/>
<path d="M223.09 63.88C219.26 62.76 215.44 61.64 211.66 60.52C207.87 59.41 204.61 58.05 201.87 56.46C199.13 54.87 197.76 52.75 197.76 50.12C197.76 47.21 198.97 44.96 201.39 43.37C203.81 41.78 206.74 40.98 210.18 40.98C217.62 40.98 222.59 43.96 225.1 49.91L235.28 44.19C233.05 39.64 229.72 36.08 225.31 33.52C220.89 30.96 215.85 29.68 210.17 29.68C203.1 29.68 197.22 31.63 192.53 35.54C187.83 39.45 185.49 44.42 185.49 50.47C185.49 55.12 186.84 58.93 189.53 61.91C192.23 64.89 195.49 66.95 199.33 68.1C203.16 69.25 206.97 70.4 210.76 71.53C214.55 72.67 217.79 74.05 220.49 75.67C223.19 77.3 224.54 79.45 224.54 82.14C224.54 85.39 223.24 87.78 220.63 89.31C218.03 90.84 214.72 91.61 210.73 91.61C206.45 91.61 202.78 90.63 199.71 88.68C196.64 86.73 194.55 84.08 193.43 80.73L182.97 86.73C185.01 91.66 188.46 95.61 193.29 98.59C198.12 101.57 203.94 103.05 210.73 103.05C218.35 103.05 224.61 101.15 229.49 97.33C234.37 93.52 236.81 88.45 236.81 82.13C236.81 77.28 235.48 73.3 232.82 70.21C230.16 67.11 226.92 65.01 223.08 63.88" fill="white"/>
<path d="M256.62 2.48001C254.29 2.48001 252.34 3.30001 250.76 4.92001C249.18 6.55001 248.39 8.47999 248.39 10.71C248.39 12.94 249.18 14.85 250.76 16.43C252.34 18.01 254.29 18.8 256.62 18.8C258.95 18.8 260.76 18.01 262.34 16.43C263.92 14.85 264.71 12.94 264.71 10.71C264.71 8.47999 263.92 6.55001 262.34 4.92001C260.76 3.29001 258.85 2.48001 256.62 2.48001Z" fill="#FE7D08"/>
<path d="M262.62 31.5H250.48V101.24H262.62V31.5Z" fill="white"/>
<path d="M354.29 29.68C344.53 29.68 337.22 33.63 332.39 41.54C328.11 33.64 321.28 29.68 311.89 29.68C302.5 29.68 295.85 33.4 291.11 40.84V31.49H278.98V101.23H291.11V62.45C291.11 55.38 292.81 50.08 296.2 46.55C299.59 43.02 303.85 41.25 308.96 41.25C313.51 41.25 317.12 42.74 319.77 45.71C322.42 48.69 323.74 52.87 323.74 58.26V101.22H335.88V62.44C335.88 55.28 337.44 49.96 340.55 46.47C343.66 42.98 347.83 41.24 353.03 41.24C357.68 41.24 361.4 42.73 364.19 45.7C366.98 48.68 368.37 52.86 368.37 58.25V101.21H380.51V57.83C380.51 49.18 378.09 42.33 373.26 37.26C368.42 32.19 362.1 29.66 354.29 29.66" fill="white"/>
<path d="M20.17 60.92C9.53998 60.92 0.919983 69.54 0.919983 80.17V101.24H20.17V80.72V60.92Z" fill="#FE7D08"/>
<path d="M20.17 68.17C14.93 68.17 0.919983 71.18 0.919983 90.78V101.24H20.17V68.17Z" fill="#F05300"/>
<mask id="mask0_1201_114" style="mask-type:luminance" maskUnits="userSpaceOnUse" x="124" y="30" width="49" height="72">
<path d="M124.93 40.41V64.68C124.93 58.91 126.32 54.59 129.11 51.71C131.9 48.83 135.62 47.39 140.27 47.39C144.45 47.39 147.8 48.62 150.31 51.09C152.82 53.55 154.08 57.11 154.08 61.76V101.25H172.07V59.53C172.07 50.51 169.58 43.44 164.61 38.33C159.63 33.22 153.33 30.66 145.71 30.66C136.22 30.66 129.3 33.92 124.93 40.42" fill="white"/>
</mask>
<g mask="url(#mask0_1201_114)">
<mask id="mask1_1201_114" style="mask-type:luminance" maskUnits="userSpaceOnUse" x="117" y="25" width="63" height="82">
<path d="M179.24 25.85H117.75V106.03H179.24V25.85Z" fill="white"/>
</mask>
<g mask="url(#mask1_1201_114)">
<mask id="mask2_1201_114" style="mask-type:luminance" maskUnits="userSpaceOnUse" x="117" y="25" width="63" height="82">
<path d="M125.408 25.8293L117.747 100.477L171.574 106.002L179.236 31.3538L125.408 25.8293Z" fill="white"/>
</mask>
<g mask="url(#mask2_1201_114)">
<path d="M118.38 19.589L109.595 105.179L178.593 112.261L187.377 26.6705L118.38 19.589Z" fill="url(#paint0_radial_1201_114)"/>
</g>
</g>
</g>
<mask id="mask3_1201_114" style="mask-type:luminance" maskUnits="userSpaceOnUse" x="332" y="29" width="49" height="60">
<path d="M332.39 41.54C334.91 48.63 335.88 51.37 335.88 62.46C335.88 55.3 337.44 49.98 340.55 46.49C343.66 43 347.82 41.26 353.03 41.26C357.68 41.26 361.4 42.75 364.19 45.72C366.98 48.7 368.37 52.88 368.37 58.27V88.93C372.07 88.19 376.23 87.36 380.5 86.5V57.85C380.5 49.2 378.08 42.34 373.25 37.28C368.41 32.21 362.09 29.68 354.28 29.68C344.52 29.68 337.21 33.63 332.38 41.54" fill="white"/>
</mask>
<g mask="url(#mask3_1201_114)">
<mask id="mask4_1201_114" style="mask-type:luminance" maskUnits="userSpaceOnUse" x="303" y="6" width="107" height="107">
<path d="M409.38 6.23999H303.53V112.37H409.38V6.23999Z" fill="white"/>
</mask>
<g mask="url(#mask4_1201_114)">
<mask id="mask5_1201_114" style="mask-type:luminance" maskUnits="userSpaceOnUse" x="303" y="6" width="107" height="107">
<path d="M361.879 6.20258L303.528 52.5844L351.023 112.337L409.375 65.9556L361.879 6.20258Z" fill="white"/>
</mask>
<g mask="url(#mask5_1201_114)">
<path d="M368.397 -45.359L251.835 47.2928L344.518 163.895L461.08 71.2429L368.397 -45.359Z" fill="url(#paint1_radial_1201_114)"/>
</g>
</g>
</g>
<mask id="mask6_1201_114" style="mask-type:luminance" maskUnits="userSpaceOnUse" x="182" y="75" width="50" height="29">
<path d="M224.54 82.14C224.54 85.39 223.24 87.78 220.63 89.31C218.03 90.84 214.72 91.61 210.73 91.61C206.45 91.61 202.78 90.63 199.71 88.68C196.64 86.73 194.55 84.08 193.43 80.73L182.97 86.73C185.01 91.66 188.46 95.61 193.29 98.59C198.12 101.57 203.94 103.05 210.73 103.05C217.52 103.05 223.51 101.44 228.19 98.25C238.91 84.97 220.49 75.66 220.49 75.66C223.19 77.28 224.54 79.44 224.54 82.13" fill="white"/>
</mask>
<g mask="url(#mask6_1201_114)">
<mask id="mask7_1201_114" style="mask-type:luminance" maskUnits="userSpaceOnUse" x="171" y="52" width="80" height="75">
<path d="M250.3 52.39H171.57V126.34H250.3V52.39Z" fill="white"/>
</mask>
<g mask="url(#mask7_1201_114)">
<mask id="mask8_1201_114" style="mask-type:luminance" maskUnits="userSpaceOnUse" x="171" y="52" width="80" height="75">
<path d="M226.431 52.3975L171.568 81.7899L195.44 126.348L250.303 96.9557L226.431 52.3975Z" fill="white"/>
</mask>
<g mask="url(#mask8_1201_114)">
<path d="M232.736 19.6314L140.772 68.9006L189.116 159.136L281.079 109.867L232.736 19.6314Z" fill="url(#paint2_radial_1201_114)"/>
</g>
</g>
</g>
<mask id="mask9_1201_114" style="mask-type:luminance" maskUnits="userSpaceOnUse" x="190" y="29" width="46" height="28">
<path d="M192.52 35.54C183.72 46.49 201.86 56.46 201.86 56.46C199.12 54.87 197.75 52.75 197.75 50.12C197.75 47.21 198.96 44.96 201.38 43.37C203.8 41.78 206.73 40.98 210.17 40.98C217.61 40.98 222.58 43.96 225.09 49.91L235.27 44.19C233.04 39.63 229.71 36.08 225.3 33.52C220.88 30.96 215.84 29.68 210.16 29.68C203.09 29.68 197.21 31.63 192.52 35.54Z" fill="white"/>
</mask>
<g mask="url(#mask9_1201_114)">
<mask id="mask10_1201_114" style="mask-type:luminance" maskUnits="userSpaceOnUse" x="171" y="6" width="77" height="75">
<path d="M247.53 6.10001H171.47V80.05H247.53V6.10001Z" fill="white"/>
</mask>
<g mask="url(#mask10_1201_114)">
<mask id="mask11_1201_114" style="mask-type:luminance" maskUnits="userSpaceOnUse" x="171" y="6" width="77" height="75">
<path d="M219.901 6.1091L171.473 37.6793L199.1 80.0594L247.529 48.4893L219.901 6.1091Z" fill="white"/>
</mask>
<g mask="url(#mask11_1201_114)">
<path d="M224.842 -28.6754L137.635 28.1738L194.146 114.861L281.352 58.0118L224.842 -28.6754Z" fill="url(#paint3_radial_1201_114)"/>
</g>
</g>
</g>
<g opacity="0.3">
<mask id="mask12_1201_114" style="mask-type:luminance" maskUnits="userSpaceOnUse" x="390" y="27" width="150" height="77">
<path d="M539.31 27.43H390.47V103.3H539.31V27.43Z" fill="white"/>
</mask>
<g mask="url(#mask12_1201_114)">
<mask id="mask13_1201_114" style="mask-type:luminance" maskUnits="userSpaceOnUse" x="390" y="27" width="150" height="77">
<path d="M539.31 27.43H390.47V103.3H539.31V27.43Z" fill="white"/>
</mask>
<g mask="url(#mask13_1201_114)">
<path d="M428.7 40C433.15 40 437.18 41.03 440.78 43.08C444.38 45.14 447.13 47.92 449.01 51.41L459.12 45.55C456.09 40.36 451.86 36.25 446.44 33.22C441.02 30.18 435.11 28.67 428.7 28.67C418.06 28.67 409.23 32.19 402.23 39.23C395.22 46.27 391.72 54.98 391.72 65.35C391.72 75.72 395.22 84.44 402.23 91.48C409.24 98.52 418.06 102.04 428.7 102.04C435.17 102.04 441.12 100.51 446.54 97.44C451.97 94.37 456.16 90.24 459.12 85.05L449.01 79.29C447.19 82.79 444.46 85.57 440.83 87.63C437.2 89.69 433.15 90.71 428.7 90.71C421.16 90.71 415.04 88.32 410.36 83.54C405.68 78.75 403.34 72.69 403.34 65.35C403.34 58.01 405.68 51.94 410.36 47.16C415.04 42.38 421.16 39.99 428.7 39.99" fill="#B5B5B5"/>
<path d="M527.4 39.34C520.29 32.23 511.62 28.68 501.38 28.68C491.14 28.68 482.46 32.23 475.35 39.34C468.24 46.45 464.69 55.12 464.69 65.36C464.69 75.6 468.24 84.28 475.35 91.38C482.46 98.49 491.13 102.05 501.38 102.05C511.63 102.05 520.29 98.5 527.4 91.38C534.51 84.27 538.06 75.61 538.06 65.36C538.06 55.11 534.51 46.44 527.4 39.34ZM519.21 83.5C514.4 88.32 508.45 90.72 501.38 90.72C494.31 90.72 488.35 88.32 483.54 83.5C478.72 78.68 476.31 72.64 476.31 65.36C476.31 58.08 478.72 52.04 483.54 47.22C488.35 42.4 494.3 39.99 501.38 39.99C508.46 39.99 514.4 42.4 519.21 47.22C524.03 52.03 526.44 58.08 526.44 65.36C526.44 72.64 524.03 78.68 519.21 83.5Z" fill="#B5B5B5"/>
</g>
</g>
</g>
<defs>
<radialGradient id="paint0_radial_1201_114" cx="0" cy="0" r="1" gradientUnits="userSpaceOnUse" gradientTransform="translate(108.439 36.03) rotate(5.86) scale(87.36 87.36)">
<stop stop-color="#700000"/>
<stop offset="1" stop-color="#C4513D"/>
</radialGradient>
<radialGradient id="paint1_radial_1201_114" cx="0" cy="0" r="1" gradientUnits="userSpaceOnUse" gradientTransform="translate(323.215 54.49) rotate(-38.48) scale(55.79 55.79)">
<stop stop-color="#727272"/>
<stop offset="1" stop-color="white"/>
</radialGradient>
<radialGradient id="paint2_radial_1201_114" cx="0" cy="0" r="1" gradientUnits="userSpaceOnUse" gradientTransform="translate(244.407 78.622) rotate(151.82) scale(42.61 42.61)">
<stop stop-color="white"/>
<stop offset="1" stop-color="#727272"/>
</radialGradient>
<radialGradient id="paint3_radial_1201_114" cx="0" cy="0" r="1" gradientUnits="userSpaceOnUse" gradientTransform="translate(177.003 56.0966) rotate(-33.1) scale(52.82 52.82)">
<stop stop-color="#727272"/>
<stop offset="1" stop-color="white"/>
</radialGradient>
</defs>
</svg>
